<svg xmlns="http://www.w3.org/2000/svg" xmlns:xlink="http://www.w3.org/1999/xlink" width="32" height="32" viewBox="0 0 32 32">
  <defs>
    <clipPath id="clip-path">
      <rect id="Rectangle_159" data-name="Rectangle 159" width="32" height="32"/>
    </clipPath>
  </defs>
  <g id="Group_3672" data-name="Group 3672" clip-path="url(#clip-path)">
    <path id="Path_734" data-name="Path 734" d="M32,16A16,16,0,0,1,0,16a1.25,1.25,0,0,1,2.5,0A13.5,13.5,0,1,0,16,2.5,1.25,1.25,0,0,1,16,0,15.991,15.991,0,0,1,32,16M10.025,3.862l1.617-.67a1.25,1.25,0,1,0-.957-2.31l-1.617.67a1.25,1.25,0,1,0,.957,2.31m-4.19,3.21L7.073,5.835A1.25,1.25,0,0,0,5.3,4.068L4.068,5.3A1.25,1.25,0,0,0,5.835,7.073M1.559,12.319a1.25,1.25,0,0,0,1.633-.676l.67-1.617a1.25,1.25,0,1,0-2.31-.957l-.67,1.617a1.25,1.25,0,0,0,.676,1.633M16,9.75A1.25,1.25,0,0,0,14.75,11v3.75H11a1.25,1.25,0,0,0,0,2.5h3.75V21a1.25,1.25,0,0,0,2.5,0V17.25H21a1.25,1.25,0,0,0,0-2.5H17.25V11A1.25,1.25,0,0,0,16,9.75"/>
  </g>
</svg>
