<svg id="Group_3702" data-name="Group 3702" xmlns="http://www.w3.org/2000/svg" xmlns:xlink="http://www.w3.org/1999/xlink" width="26.549" height="26.549" viewBox="0 0 26.549 26.549">
  <defs>
    <clipPath id="clip-path">
      <rect id="Rectangle_177" data-name="Rectangle 177" width="26.549" height="26.549" stroke="#0f0f0f" stroke-width="0.5"/>
    </clipPath>
  </defs>
  <g id="Group_3701" data-name="Group 3701" transform="translate(0 0)" clip-path="url(#clip-path)">
    <path id="Path_768" data-name="Path 768" d="M19.114,3.279A11.2,11.2,0,0,0,3.279,19.113,11.2,11.2,0,0,0,19.114,3.279m-.464,15.37a10.465,10.465,0,0,1-5.372,2.883v-7.2h1.5a.678.678,0,0,0,.658-.514l.526-2.1a.679.679,0,0,0-.658-.843H12.949a.328.328,0,0,0,0,.656h2.356a.021.021,0,0,1,.018.009.02.02,0,0,1,0,.019l-.526,2.1a.023.023,0,0,1-.022.017h-1.83a.328.328,0,0,0-.328.328v7.64a10.707,10.707,0,0,1-1.425.1A10.54,10.54,0,0,1,3.743,3.743,10.54,10.54,0,1,1,18.65,18.649" transform="translate(1.017 1.017)" stroke="#0f0f0f" stroke-width="0.5"/>
    <path id="Path_769" data-name="Path 769" d="M119,72.145h-2.494a4.967,4.967,0,0,0-4.961,4.961v2.937h-2.521a.805.805,0,0,0-.8.8v2.494a.805.805,0,0,0,.8.8h2.521v7.093a.389.389,0,0,0,.778,0V83.757a.389.389,0,0,0-.389-.389h-2.91a.027.027,0,0,1-.027-.027V80.847a.027.027,0,0,1,.027-.027h2.91a.389.389,0,0,0,.389-.389V77.106a4.188,4.188,0,0,1,4.183-4.183H119a.027.027,0,0,1,.027.027v2.494a.027.027,0,0,1-.027.027h-1.663a1.638,1.638,0,0,0-1.636,1.636v1.663a.389.389,0,1,0,.778,0V77.106a.859.859,0,0,1,.858-.858H119a.805.805,0,0,0,.8-.8V72.949a.805.805,0,0,0-.8-.8" transform="translate(-101.798 -68.218)" stroke="#0f0f0f" stroke-width="0.5"/>
  </g>
</svg>
