<svg xmlns="http://www.w3.org/2000/svg" xmlns:xlink="http://www.w3.org/1999/xlink" width="21.598" height="24.135" viewBox="0 0 21.598 24.135">
  <defs>
    <clipPath id="clip-path">
      <rect id="Rectangle_176" data-name="Rectangle 176" width="21.598" height="24.135" stroke="#000" stroke-width="0.3"/>
    </clipPath>
  </defs>
  <g id="Group_3700" data-name="Group 3700" transform="translate(0 0)">
    <g id="Group_3699" data-name="Group 3699" transform="translate(0 0)" clip-path="url(#clip-path)">
      <path id="Path_763" data-name="Path 763" d="M95.076,289.039h8.984a.354.354,0,1,0,0-.707H95.076a.354.354,0,1,0,0,.707" transform="translate(-88.768 -270.21)" stroke="#000" stroke-width="0.3"/>
      <path id="Path_764" data-name="Path 764" d="M95.076,312.883h8.984a.354.354,0,1,0,0-.707H95.076a.354.354,0,0,0,0,.707" transform="translate(-88.768 -292.555)" stroke="#000" stroke-width="0.3"/>
      <path id="Path_765" data-name="Path 765" d="M95.076,336.727h8.984a.354.354,0,1,0,0-.707H95.076a.354.354,0,1,0,0,.707" transform="translate(-88.768 -314.9)" stroke="#000" stroke-width="0.3"/>
      <path id="Path_766" data-name="Path 766" d="M264.218,160.839a1.194,1.194,0,1,0,1.194-1.194,1.2,1.2,0,0,0-1.194,1.194m1.68,0a.486.486,0,1,1-.486-.487.487.487,0,0,1,.486.487" transform="translate(-247.611 -149.611)" stroke="#000" stroke-width="0.3"/>
      <path id="Path_767" data-name="Path 767" d="M21.244,12.97a.354.354,0,0,0,.353-.354V8.384a.859.859,0,0,0-.858-.858H17.546V.976A.977.977,0,0,0,16.57,0H11.624a.354.354,0,1,0,0,.707H16.57a.269.269,0,0,1,.269.269v6.55H4.759V3.662H6.738a.977.977,0,0,0,.976-.976V.707h2.26a.354.354,0,1,0,0-.707H7.36a.357.357,0,0,0-.249.1h0L4.155,3.058a.357.357,0,0,0-.1.25V7.526H.858A.859.859,0,0,0,0,8.384V18.678a.859.859,0,0,0,.858.858H4.052v3.589a1.012,1.012,0,0,0,1.011,1.011H16.535a1.012,1.012,0,0,0,1.011-1.011V19.536H20.74a.859.859,0,0,0,.858-.858V14.266a.354.354,0,0,0-.707,0v4.412a.153.153,0,0,1-.151.151h-.68V15.077a.784.784,0,0,0-.784-.784H2.322a.784.784,0,0,0-.784.784v3.752H.858a.153.153,0,0,1-.151-.151V8.384a.153.153,0,0,1,.151-.151H20.74a.153.153,0,0,1,.151.151v4.232a.354.354,0,0,0,.354.354M7.007,1.207V2.686a.269.269,0,0,1-.269.269H5.259Zm9.832,21.918a.3.3,0,0,1-.3.3H5.063a.3.3,0,0,1-.3-.3V17.268H16.839c0,.324,0,5.531,0,5.857m2.514-4.3H17.546V17.268h1.807ZM2.245,15.077A.078.078,0,0,1,2.322,15H19.276a.078.078,0,0,1,.077.077v1.484H2.245Zm0,2.191H4.052v1.561H2.245Z" stroke="#000" stroke-width="0.3"/>
    </g>
  </g>
</svg>
