<svg xmlns="http://www.w3.org/2000/svg" xmlns:xlink="http://www.w3.org/1999/xlink" width="23" height="23" viewBox="0 0 23 23">
  <defs>
    <clipPath id="clip-path">
      <rect id="Rectangle_173" data-name="Rectangle 173" width="23" height="23" transform="translate(0)" fill="#fff"/>
    </clipPath>
  </defs>
  <g id="Group_3693" data-name="Group 3693" transform="translate(0.667 1.24)">
    <g id="Group_3692" data-name="Group 3692" transform="translate(-0.667 -1.24)" clip-path="url(#clip-path)">
      <path id="Path_755" data-name="Path 755" d="M12.118,16.1a5.317,5.317,0,0,1,7.988-4.6q.2-.326.375-.665a8.727,8.727,0,0,0,.666-1.807,6.835,6.835,0,0,0,.166-1.8C21.141,3.815,18.165.7,15.084.523a4.728,4.728,0,0,0-3.191,1.065l-1.17,1-1.17-1a5.2,5.2,0,0,0-1.1-.668,4.562,4.562,0,0,0-2.1-.4C3.282.7.306,3.816.134,7.231A6.833,6.833,0,0,0,.3,9.034a11.73,11.73,0,0,0,.666,1.807A16.7,16.7,0,0,0,4.7,15.327,52.087,52.087,0,0,0,8.96,18.753l1.763,1.254,1.763-1.254.239-.18a5.287,5.287,0,0,1-.608-2.471" transform="translate(0.317 0.777)" fill="#fff"/>
      <path id="Path_756" data-name="Path 756" d="M246.439,212a3.906,3.906,0,1,0,2.762,1.144A3.906,3.906,0,0,0,246.439,212m2.513,4.445a.606.606,0,0,1-.485.416c-.063.011-.609.028-1.014.041-.012.405-.029.952-.041,1.015a.606.606,0,0,1-.416.485,2.336,2.336,0,0,1-1.081,0,.6.6,0,0,1-.414-.485c-.012-.063-.028-.609-.041-1.015-.405-.012-.983-.028-1.047-.041a.6.6,0,0,1-.485-.416,2.323,2.323,0,0,1,0-1.081.6.6,0,0,1,.485-.416c.064-.012.641-.028,1.047-.041.013-.405.028-.953.041-1.015a.606.606,0,0,1,.414-.485,2.334,2.334,0,0,1,1.081,0,.606.606,0,0,1,.416.485c.012.064.028.609.041,1.015.405.012.953.029,1.014.041a.605.605,0,0,1,.485.416,2.335,2.335,0,0,1,0,1.081" transform="translate(-228.703 -199.023)" fill="#fff"/>
    </g>
  </g>
</svg>
