<svg xmlns="http://www.w3.org/2000/svg" xmlns:xlink="http://www.w3.org/1999/xlink" width="27.529" height="15.905" viewBox="0 0 27.529 15.905">
  <defs>
    <clipPath id="clip-path">
      <rect id="Rectangle_175" data-name="Rectangle 175" width="27.529" height="15.905" fill="none"/>
    </clipPath>
  </defs>
  <g id="Group_3698" data-name="Group 3698" transform="translate(0 0)">
    <g id="Group_3697" data-name="Group 3697" transform="translate(0 0)" clip-path="url(#clip-path)">
      <path id="Path_762" data-name="Path 762" d="M25.081,0H6.118A2.454,2.454,0,0,0,3.671,2.447v.918a.612.612,0,0,0,1.223,0V2.447a1.538,1.538,0,0,1,.061-.367l6.852,5.873L4.955,13.825a1.538,1.538,0,0,1-.061-.367v-.918a.612.612,0,0,0-1.223,0v.918a2.454,2.454,0,0,0,2.447,2.447H25.081a2.454,2.454,0,0,0,2.447-2.447V2.447A2.454,2.454,0,0,0,25.081,0M5.873,1.254a.6.6,0,0,1,.245-.03H25.081a.6.6,0,0,1,.245.03L16,9.237a.643.643,0,0,1-.8,0ZM25.081,14.682H6.118a.6.6,0,0,1-.245-.03l6.882-5.9,1.652,1.438a1.78,1.78,0,0,0,2.386,0l1.652-1.438,6.882,5.9a.6.6,0,0,1-.245.03m1.224-1.223a1.539,1.539,0,0,1-.061.367L19.392,7.953,26.244,2.08a1.539,1.539,0,0,1,.061.367ZM1.835,6.423a.614.614,0,0,1,.612-.612h3.67a.612.612,0,1,1,0,1.223H2.447a.614.614,0,0,1-.612-.612m4.282,3.67H.612a.612.612,0,1,1,0-1.223H6.118a.612.612,0,1,1,0,1.223" fill="#1a1818"/>
    </g>
  </g>
</svg>
