<svg id="Group_3704" data-name="Group 3704" xmlns="http://www.w3.org/2000/svg" xmlns:xlink="http://www.w3.org/1999/xlink" width="13.275" height="14.481" viewBox="0 0 13.275 14.481">
  <defs>
    <clipPath id="clip-path">
      <rect id="Rectangle_178" data-name="Rectangle 178" width="13.275" height="14.481" fill="#e47c17"/>
    </clipPath>
  </defs>
  <g id="Group_3703" data-name="Group 3703" clip-path="url(#clip-path)">
    <path id="Path_770" data-name="Path 770" d="M318.59,17.961A1.961,1.961,0,1,1,316.629,16a1.961,1.961,0,0,1,1.961,1.961" transform="translate(-305.768 -15.547)" fill="#e47c17"/>
    <path id="Path_771" data-name="Path 771" d="M301.082,4.827A2.414,2.414,0,1,1,303.5,2.414a2.416,2.416,0,0,1-2.414,2.414m0-3.922a1.508,1.508,0,1,0,1.508,1.508A1.51,1.51,0,0,0,301.082.905" transform="translate(-290.22)" fill="#e47c17"/>
    <path id="Path_772" data-name="Path 772" d="M318.59,359.293a1.961,1.961,0,1,1-1.961-1.961,1.961,1.961,0,0,1,1.961,1.961" transform="translate(-305.768 -347.225)" fill="#e47c17"/>
    <path id="Path_773" data-name="Path 773" d="M301.082,346.159a2.414,2.414,0,1,1,2.414-2.414,2.416,2.416,0,0,1-2.414,2.414m0-3.922a1.508,1.508,0,1,0,1.508,1.509,1.51,1.51,0,0,0-1.508-1.509" transform="translate(-290.22 -331.678)" fill="#e47c17"/>
    <path id="Path_774" data-name="Path 774" d="M19.922,188.629a1.961,1.961,0,1,1-1.961-1.961,1.961,1.961,0,0,1,1.961,1.961" transform="translate(-15.547 -181.388)" fill="#e47c17"/>
    <path id="Path_775" data-name="Path 775" d="M2.414,175.5a2.414,2.414,0,1,1,2.414-2.414A2.416,2.416,0,0,1,2.414,175.5m0-3.922a1.508,1.508,0,1,0,1.509,1.508,1.51,1.51,0,0,0-1.509-1.508" transform="translate(0 -165.841)" fill="#e47c17"/>
    <path id="Path_776" data-name="Path 776" d="M114.952,94.614a.6.6,0,0,1-.3-1.128l5.6-3.192a.6.6,0,1,1,.6,1.049l-5.6,3.192a.6.6,0,0,1-.3.079" transform="translate(-111.114 -87.663)" fill="#e47c17"/>
    <path id="Path_777" data-name="Path 777" d="M120.573,270.618a.6.6,0,0,1-.3-.079l-5.6-3.192a.6.6,0,0,1,.6-1.049l5.6,3.192a.6.6,0,0,1-.3,1.128" transform="translate(-111.136 -258.689)" fill="#e47c17"/>
  </g>
</svg>
