<svg id="Group_3696" data-name="Group 3696" xmlns="http://www.w3.org/2000/svg" xmlns:xlink="http://www.w3.org/1999/xlink" width="21.722" height="21.722" viewBox="0 0 21.722 21.722">
  <defs>
    <clipPath id="clip-path">
      <rect id="Rectangle_174" data-name="Rectangle 174" width="21.722" height="21.722" stroke="#000" stroke-width="0.5"/>
    </clipPath>
  </defs>
  <g id="Group_3695" data-name="Group 3695" clip-path="url(#clip-path)">
    <path id="Path_757" data-name="Path 757" d="M18,0H3.719A3.723,3.723,0,0,0,0,3.719V18a3.723,3.723,0,0,0,3.719,3.719H18A3.723,3.723,0,0,0,21.722,18V3.719A3.723,3.723,0,0,0,18,0m3.083,18A3.086,3.086,0,0,1,18,21.086H3.719A3.086,3.086,0,0,1,.636,18V3.719A3.086,3.086,0,0,1,3.719.636H18a3.086,3.086,0,0,1,3.083,3.083Z" stroke="#000" stroke-width="0.5"/>
    <path id="Path_758" data-name="Path 758" d="M90.268,84.168a6.1,6.1,0,1,0,6.1,6.1,6.107,6.107,0,0,0-6.1-6.1m0,11.563a5.463,5.463,0,1,1,5.463-5.463,5.47,5.47,0,0,1-5.463,5.463" transform="translate(-79.407 -79.407)" stroke="#000" stroke-width="0.5"/>
    <path id="Path_759" data-name="Path 759" d="M278.234,48.1a1.679,1.679,0,1,0,1.679,1.678,1.681,1.681,0,0,0-1.679-1.678m0,2.721a1.042,1.042,0,1,1,1.042-1.042,1.043,1.043,0,0,1-1.042,1.042" transform="translate(-260.911 -45.377)" stroke="#000" stroke-width="0.5"/>
    <path id="Path_760" data-name="Path 760" d="M116.01,116.01a3.747,3.747,0,0,1,4.838-.4.318.318,0,1,0,.369-.518,4.395,4.395,0,0,0-6.129,6.129.318.318,0,0,0,.518-.369,3.747,3.747,0,0,1,.4-4.838" transform="translate(-107.81 -107.81)" stroke="#000" stroke-width="0.5"/>
    <path id="Path_761" data-name="Path 761" d="M150.446,144.686a.318.318,0,0,0-.075.444,3.758,3.758,0,0,1-5.241,5.241.318.318,0,0,0-.369.518,4.408,4.408,0,0,0,2.553.814q.17,0,.341-.013a4.395,4.395,0,0,0,3.234-6.93.318.318,0,0,0-.444-.074" transform="translate(-136.446 -136.446)" stroke="#000" stroke-width="0.5"/>
  </g>
</svg>
