<svg xmlns="http://www.w3.org/2000/svg" xmlns:xlink="http://www.w3.org/1999/xlink" width="28.963" height="28.963" viewBox="0 0 28.963 28.963">
  <defs>
    <clipPath id="clip-path">
      <rect id="Rectangle_169" data-name="Rectangle 169" width="28.963" height="28.963" stroke="#000" stroke-width="0.4"/>
    </clipPath>
  </defs>
  <g id="Group_3686" data-name="Group 3686" transform="translate(0)">
    <g id="Group_3685" data-name="Group 3685" transform="translate(0 0)">
      <g id="Group_3684" data-name="Group 3684" transform="translate(0 0)" clip-path="url(#clip-path)">
        <path id="Path_748" data-name="Path 748" d="M92.854,30.791a11.477,11.477,0,0,0-7.7,2.965.406.406,0,0,0,.544.6,10.689,10.689,0,0,1,15.1,15.1.406.406,0,0,0,.6.543,11.5,11.5,0,0,0-8.542-19.207" transform="translate(-79.225 -27.091)" stroke="#000" stroke-width="0.4"/>
        <path id="Path_749" data-name="Path 749" d="M52.3,104.057a10.569,10.569,0,0,1-6.694,2.363,10.676,10.676,0,0,1-5.523-1.535,2.627,2.627,0,0,0-2.3-.206l-1.838.7.7-1.838a2.61,2.61,0,0,0-.206-2.3,10.676,10.676,0,0,1-1.535-5.523,10.566,10.566,0,0,1,2.363-6.694.406.406,0,1,0-.632-.509,11.493,11.493,0,0,0-.89,13.145,1.8,1.8,0,0,1,.142,1.587l-1.027,2.686a.406.406,0,0,0,.524.524l2.686-1.027a1.813,1.813,0,0,1,1.587.142,11.494,11.494,0,0,0,13.146-.89.406.406,0,1,0-.509-.632" transform="translate(-31.979 -80.518)" stroke="#000" stroke-width="0.4"/>
        <path id="Path_750" data-name="Path 750" d="M101.068,97.216a1.734,1.734,0,0,0,.4-1.831,11.117,11.117,0,0,1-.537-1.974,1.266,1.266,0,0,0-.871-.989,1.3,1.3,0,0,0-1.313.319l-1.009,1.009a2.582,2.582,0,0,0-.766,2.007A11.5,11.5,0,0,0,107.6,106.394c.059,0,.119.006.178.006a2.6,2.6,0,0,0,1.83-.773l1.009-1.009a1.3,1.3,0,0,0,.319-1.313,1.266,1.266,0,0,0-.989-.871,11.121,11.121,0,0,1-1.974-.537,1.734,1.734,0,0,0-1.83.4l-.157.157a.908.908,0,0,1-1,.205,8.414,8.414,0,0,1-4.284-4.284.908.908,0,0,1,.205-1Zm-.574-.574-.157.157a1.724,1.724,0,0,0-.374,1.9,9.221,9.221,0,0,0,4.7,4.7,1.724,1.724,0,0,0,1.9-.374l.157-.157a.92.92,0,0,1,.972-.211,11.977,11.977,0,0,0,2.118.577.449.449,0,0,1,.356.316.483.483,0,0,1-.119.5l-1.009,1.009a1.771,1.771,0,0,1-1.375.531A10.684,10.684,0,0,1,97.777,95.7a1.773,1.773,0,0,1,.531-1.375l1.009-1.009a.48.48,0,0,1,.342-.143.509.509,0,0,1,.153.024.45.45,0,0,1,.317.356,11.947,11.947,0,0,0,.577,2.118.922.922,0,0,1-.212.972" transform="translate(-90.306 -84.221)" stroke="#000" stroke-width="0.4"/>
      </g>
    </g>
  </g>
</svg>
